<?xml version="1.0" standalone="no"?>
<!DOCTYPE svg PUBLIC "-//W3C//DTD SVG 20010904//EN"
 "http://www.w3.org/TR/2001/REC-SVG-20010904/DTD/svg10.dtd">
<svg version="1.0" xmlns="http://www.w3.org/2000/svg"
 width="700.000000pt" height="700.000000pt" viewBox="0 0 700.000000 700.000000"
 preserveAspectRatio="xMidYMid meet">
<metadata>
Created by potrace 1.11, written by Peter Selinger 2001-2013
</metadata>
<g transform="translate(0.000000,700.000000) scale(0.100000,-0.100000)"
fill="#000000" stroke="none">
<path d="M2460 6222 c-80 -108 -151 -204 -157 -212 -7 -8 -39 -51 -72 -95 -59
-78 -60 -81 -44 -105 9 -14 154 -209 323 -435 168 -225 384 -516 480 -645 96
-129 225 -301 285 -381 61 -81 119 -160 130 -175 11 -15 94 -126 185 -248 273
-366 734 -985 1074 -1441 176 -236 324 -434 329 -440 71 -88 556 -750 552
-753 -7 -7 -832 -9 -867 -2 -25 5 -65 52 -183 215 -25 36 -334 450 -343 460
-4 6 -28 37 -52 70 -24 33 -162 218 -305 410 -144 193 -268 360 -277 373 -15
22 -18 19 -207 -235 -106 -142 -200 -269 -211 -283 -10 -14 -141 -189 -291
-390 -300 -403 -419 -563 -448 -599 l-19 -25 -446 0 c-319 -1 -445 2 -442 10
5 13 260 356 1382 1859 185 248 344 462 355 476 l19 27 -73 95 c-39 53 -124
166 -187 252 -106 144 -127 172 -170 227 -14 18 -19 13 -95 -89 -62 -85 -698
-938 -784 -1053 -52 -68 -485 -649 -620 -830 -83 -113 -161 -216 -171 -230
-10 -14 -175 -234 -366 -490 -190 -256 -428 -574 -528 -708 -99 -133 -182
-246 -183 -250 -4 -8 2663 -10 2671 -1 4 3 171 226 371 495 201 269 372 497
379 506 8 9 19 26 26 37 15 30 24 27 59 -21 17 -24 37 -52 45 -63 8 -11 94
-126 190 -255 96 -129 223 -300 283 -380 59 -80 111 -149 116 -155 4 -5 34
-46 67 -90 l59 -80 1335 0 c735 0 1335 3 1334 7 -3 6 -207 281 -715 962 -79
105 -149 200 -157 211 -8 11 -131 175 -273 365 -142 190 -400 536 -573 769
-173 232 -321 430 -328 439 -40 53 -558 748 -1099 1473 -109 147 -208 279
-220 295 -12 16 -40 54 -62 84 -22 30 -44 60 -48 65 -5 6 -25 33 -46 60 -20
28 -40 55 -45 60 -4 6 -25 35 -47 65 -22 30 -42 57 -45 60 -3 3 -50 66 -105
140 -55 74 -105 142 -112 150 -6 8 -87 116 -179 240 -237 319 -298 400 -304
400 -3 0 -70 -89 -150 -198z"/>
<path d="M4358 6387 c-12 -18 -26 -36 -31 -42 -4 -5 -127 -169 -272 -364 -166
-222 -262 -358 -256 -365 4 -6 104 -139 221 -296 117 -157 213 -286 214 -287
1 -2 76 97 167 220 90 122 167 227 172 232 4 6 64 86 133 178 l125 168 -198
265 c-109 145 -205 276 -213 289 -22 37 -37 37 -62 2z"/>
</g>
</svg>
