<svg xmlns="http://www.w3.org/2000/svg" xmlns:xlink="http://www.w3.org/1999/xlink" version="1.0" viewBox="0 0 128 128"><defs/><g fill="0"><g transform="translate(30)"><path fill="none" d="M0 0h60v50H0z"/><svg width="60" height="51" filter="url(#a)"><svg xmlns="http://www.w3.org/2000/svg" enable-background="new 0 0 126 107" viewBox="0 0 124 105"><path fill="#00476E" d="M46.88.55L125 105.29H77.09L62.81 86.1l-14.33 19.19H.57l49.09-65.81 7.92 10.64-31.62 42.43h16.15l20.7-27.79 20.7 27.79h16.11L38.97 11.19 46.88.55zm21.11 14.32L78.68.55l7.92 10.64-10.64 14.33-7.97-10.65z"/></svg></svg><defs><filter id="a"><feColorMatrix class="icon-fecolormatrix" values="0 0 0 0 0.0078125 0 0 0 0 0.0078125 0 0 0 0 0.0078125 0 0 0 1 0"/></filter></defs></g><path d="M21.2 75.35L34.7 101l3.05-1.65-14.8-28.1 4.65-11-3.25-1.4L7 99.85l3.2 1.4zm41.5-6.4h3.8l-9.7 21.5 3.15 1.45L70.3 68.95h1.6v4.9l-11.6 26.9 3.2 1.4 8.4-19.45v19.75h3.5v-37H64.15l2.5-6-3.25-1.3-7.6 18.4 3.25 1.3zm-12.45 19.3v14.2h3.5V87.2L58 85.9l-1-3.35-3.25 1V72.4h3.55v-3.5h-3.55V58.05h-3.5V68.9H46.7l.5-7.35-3.5-.2L42.55 79l3.5.25.45-6.85h3.75v12.2L42.1 87l1 3.35zm53.6 8.5h8.8v-3.5h-8.8v-5h6.1v-3.5h-6.1v-4.2h-3.5v4.2H96l1.45-7.8h13.95v-3.5H98.1l.8-4.05-3.45-.65-.9 4.7h-4.8v3.5h4.15l-2.15 11.3h8.6v5h-10.8v3.5h10.8v5.75h3.5zM87.3 66.65h25.5v-3.5h-12.65V58h-3.5v5.15H83.9l-1.1 39.3 3.5.1z"/><g fill="#000"><path d="M2.996 114.048l1.59 1.25.8-1.06v4.5h1.36l-3.65 2.11 1.12 1.68 1.41-.88c.4.4.88.77 1.39 1.09-.93.24-2.02.41-3.31.49l.94 1.78c1.86-.14 3.51-.5 4.91-1.06 1.65.6 3.52.95 5.49 1.06l1.15-1.79c-1.37-.15-2.78-.31-4.12-.61a9.526 9.526 0 002.8-3.22h-5.65l1.05-.65h4.48v-5.17h-8.88l.29-.38h9.44v-1.8h-8.09l.33-.43-1.9-.89zm4.82 3.25v-.58h4.48v.58zm4.48-2.4v.54h-4.48v-.54zm-1.47 6.06c-.19.18-.59.48-1.23.82-.5-.23-.95-.5-1.38-.82zm6.16-4.17h1.95c-.14.65-.35 1.4-.67 2.35l2.41.25c.29-.75.52-1.69.66-2.6h4.06v1.8l-.65.68h3.33v-2.48h1.84v-2.13h-1.84v-3.39h-3.43l.27-1.27h-2.72l-.3 1.27h-2.75v3.39h-2.16zm.38 7.8h12.1v-2.2h-.91v-2.79h-10.28v2.79h-.91zm4.26-10.88v-.36h3.77v1.31h-3.8c.01-.35.03-.69.03-.95zm.77 4.84h2.04v-1.46h-2.04zm0-4.13h2.04v-.79h-2.04zm3.98 6.94v1.03h-.77v-1.03zm-5.9 0h.76v1.03h-.76zm2.57 0h.75v1.03h-.75zm11.95-3.77h1.6l-1.1 6.83 2.32.25 1.14-7.08h1.44v6.19l-.44.8h2.92v-9.12h-3.57l.33-2.05h-2.35l-.33 2.05h-1.96zm-2.89-6.71l-.42 13.75h2.61l.32-11.54h7.98v-2.21zm13.79 8.9c.5.46 1.12.97 1.84 1.52-.82.72-1.76 1.29-2.66 1.76l1.81 1.93c.9-.48 2.03-1.21 3.04-2.25 1.7.97 3.71 1.84 5.97 2.25l.86-2.24c-1.8-.44-3.64-1.18-5.32-2.06.4-.72.68-1.55.86-2.48h4.05v-5.87h-3.91v-1.92h-2.67v1.92h-4.01v5.87h1.24zm2.29-5.19h1.58v1.36h-1.58zm5.71 0v1.36h-1.46v-1.36zm-6.24 3.62h2.02c-.1.42-.23.82-.42 1.18-.58-.38-1.1-.78-1.6-1.18zm15.34.96c1.01 0 1.48-.42 1.48-1.44 0-1.01-.47-1.44-1.48-1.44-1.04 0-1.47.43-1.47 1.44s.43 1.44 1.47 1.44zm15.28 5.42h2.95v-13.88h-8.69v13.9h2.42v-11.57h3.85v10.83zm-2.81-1.79h2.85v-6.13h-2.85zm-6.98 1.2l2.42.56 1.42-6.7-2.46-.5zm.79-7.18h2.67v-2.45h-2.67zm0-3.36h2.67v-2.45h-2.67zm6.09 2.27h3.04v-1.84h-3.04zm1.25 4.98v-1.91h.54v1.91zm18.03.83l-.73.78h-2.63v-2.59h2.18v-8.94h-9.41v9.02h2.51l-3.42 3.47 1.76 1.78 3.57-3.75v3.43h6.17zm-7.09-2.74l-.75.77v-6.43h3.94v6.17h-.75v-5.02h-2.44zm10.42-4.46h3.23v1.39h-4.21v2.14h3.92l-4.52 4.6 1.74 1.76 3.07-3.43v3.79h2.79v-3.77l3.08 3.29 1.72-1.77-4.55-4.47h3.95v-2.14h-4.2v-1.39h3.21v-2.07h-3.21v-1.88h-2.79v1.88h-3.23zm17.06-.26v3.01h-5.12v2.19h3.37l-3.15 3.25 1.68 1.84 3.22-3.57v3.81h2.65v-3.79l3.2 3.55 1.68-1.84-3.17-3.25h3.44v-2.19h-5.15v-3.01h4.42v-2.17h-4.42v-1.52h-2.65v1.52h-4.42v2.17zm-.84 2.67l-.4-2.33h-2.33l.4 2.33zm6.64 0l.42-2.33h-2.34l-.4 2.33z"/></g></g></svg>
